<svg width="413" height="366" viewBox="0 0 413 366" fill="none" xmlns="http://www.w3.org/2000/svg">
<g id="butt-2">
<path d="M338.044 313.162C269.591 355.549 232.003 370.184 170.044 337.662C132.251 317.824 126.796 309.126 128.291 305.358C104.392 318.843 87.8318 318.161 55.0437 293.662C22.1399 259.463 9.14201 235.857 10.0437 174.162C10.4746 118.964 50.5436 76.6617 86.0437 52.6617C121.544 28.6618 162.182 -1.07392 234.544 14.1617C234.544 14.1617 323.044 13.6617 372.044 99.6617C421.044 185.662 411.068 255.584 338.044 313.162Z" fill="#F08A2B"/>
<path d="M170.044 138.662C154.507 145.399 133.044 162.257 133.044 162.257M133.044 302.556C133.044 302.556 108.084 305.139 170.044 337.662C232.003 370.184 269.591 355.549 338.044 313.162C411.068 255.584 421.044 185.662 372.044 99.6617C323.044 13.6617 234.544 14.1617 234.544 14.1617C162.182 -1.07392 121.544 28.6618 86.0437 52.6617C50.5436 76.6617 10.4746 118.964 10.0437 174.162C9.14201 235.857 22.1399 259.463 55.0437 293.662C89.96 319.751 106.474 318.831 133.044 302.556ZM133.044 302.556C108.215 264.587 89.2536 203.914 133.044 162.257M102.044 122.162C119.297 139.316 126.117 148.102 133.044 162.257" stroke="black" stroke-width="20"/>
</g>
</svg>
